<?xml version="1.0" standalone="no"?>
<!DOCTYPE svg PUBLIC "-//W3C//DTD SVG 1.1//EN" "http://www.w3.org/Graphics/SVG/1.1/DTD/svg11.dtd" >
<svg xmlns="http://www.w3.org/2000/svg" xmlns:xlink="http://www.w3.org/1999/xlink" version="1.1">
<metadata>
Created by FontForge 20201107 at Mon Nov  7 01:21:15 2011
 By Jimmy Wärting
Copyright Matt LaGrandeur 2011
</metadata>
<defs>
<font id="Bit9x9" horiz-adv-x="704" >
  <font-face 
    font-family="Bit9x9"
    font-weight="400"
    font-stretch="normal"
    units-per-em="1024"
    panose-1="0 0 4 0 0 0 0 0 0 0"
    ascent="819"
    descent="-205"
    x-height="576"
    cap-height="576"
    bbox="0 -64 576 576"
    underline-thickness="51"
    underline-position="77"
    unicode-range="U+0020-201D"
  />
<missing-glyph horiz-adv-x="64" 
d="M288 81v92h-92v-92h92zM379 188v92h-183v-92h183zM288 295v92h-92v-92h92zM379 402v91h-91q-39 0 -65 -26q-27 -27 -27 -65h183zM0 0v576h576v-576h-576z" />
    <glyph glyph-name=".notdef" horiz-adv-x="64" 
d="M288 81v92h-92v-92h92zM379 188v92h-183v-92h183zM288 295v92h-92v-92h92zM379 402v91h-91q-39 0 -65 -26q-27 -27 -27 -65h183zM0 0v576h576v-576h-576z" />
    <glyph glyph-name="glyph1" horiz-adv-x="64" 
 />
    <glyph glyph-name="glyph2" horiz-adv-x="1215" 
 />
    <glyph glyph-name="space" unicode=" " horiz-adv-x="1215" 
 />
    <glyph glyph-name="exclam" unicode="!" horiz-adv-x="192" 
d="M0 0v64h64v-64h-64zM0 128v448h64v-448h-64z" />
    <glyph glyph-name="quotedbl" unicode="&#x22;" horiz-adv-x="320" 
d="M0 448v128h64v-128h-64zM128 448v128h64v-128h-64z" />
    <glyph glyph-name="numbersign" unicode="#" horiz-adv-x="448" 
d="M192 192v64h-64v-64h64zM64 64v64h-64v64h64v64h-64v64h64v64h64v-64h64v64h64v-64h64v-64h-64v-64h64v-64h-64v-64h-64v64h-64v-64h-64z" />
    <glyph glyph-name="dollar" unicode="$" 
d="M64 64v64h64v-64h-64zM448 64v64h64v-64h-64zM0 128v64h64v-64h-64zM512 384v64h64v-64h-64zM64 448v64h64v-64h-64zM448 448v64h64v-64h-64zM128 0v64h128v192h-256v192h64v-128h192v192h-128v64h320v-64h-128v-192h256v-192h-64v128h-192v-192h128v-64h-320z" />
    <glyph glyph-name="percent" unicode="%" 
d="M0 0v64h64v-64h-64zM448 0v64h64v-64h-64zM64 64v64h64v-64h-64zM384 64v64h64v-64h-64zM512 64v64h64v-64h-64zM128 128v64h64v-64h-64zM448 128v64h64v-64h-64zM192 192v64h64v-64h-64zM256 256v64h64v-64h-64zM320 320v64h64v-64h-64zM64 384v64h64v-64h-64zM384 384
v64h64v-64h-64zM0 448v64h64v-64h-64zM128 448v64h64v-64h-64zM448 448v64h64v-64h-64zM64 512v64h64v-64h-64zM512 512v64h64v-64h-64z" />
    <glyph glyph-name="ampersand" unicode="&#x26;" 
d="M64 0v64h256v-64h-256zM512 0v64h64v-64h-64zM320 64v64h64v-64h-64zM448 64v64h64v-64h-64zM384 128v64h64v-64h-64zM0 64v192h64v-192h-64zM320 192v64h64v-64h-64zM448 192v64h64v-64h-64zM512 256v64h64v-64h-64zM64 256v64h128v64h64v-64h64v-64h-256zM128 384v64
h64v-64h-64zM256 384v64h64v-64h-64zM320 448v64h64v-64h-64zM64 448v128h256v-64h-192v-64h-64z" />
    <glyph glyph-name="quotesingle" unicode="'" horiz-adv-x="192" 
d="M0 448v128h64v-128h-64z" />
    <glyph glyph-name="parenleft" unicode="(" horiz-adv-x="320" 
d="M128 0v64h64v-64h-64zM64 64v64h64v-64h-64zM0 128v320h64v-320h-64zM64 448v64h64v-64h-64zM128 512v64h64v-64h-64z" />
    <glyph glyph-name="parenright" unicode=")" horiz-adv-x="320" 
d="M0 0v64h64v-64h-64zM64 64v64h64v-64h-64zM128 128v320h64v-320h-64zM64 448v64h64v-64h-64zM0 512v64h64v-64h-64z" />
    <glyph glyph-name="asterisk" unicode="*" horiz-adv-x="320" 
d="M64 384v64h-64v64h64v64h64v-64h64v-64h-64v-64h-64z" />
    <glyph glyph-name="plus" unicode="+" horiz-adv-x="448" 
d="M128 128v128h-128v64h128v128h64v-128h128v-64h-128v-128h-64z" />
    <glyph glyph-name="comma" unicode="," horiz-adv-x="192" 
d="M0 -64v128h64v-128h-64z" />
    <glyph glyph-name="hyphen" unicode="-" horiz-adv-x="448" 
d="M0 256v64h320v-64h-320z" />
    <glyph glyph-name="period" unicode="." horiz-adv-x="192" 
d="M0 0v64h64v-64h-64z" />
    <glyph glyph-name="slash" unicode="/" 
d="M0 0v64h64v-64h-64zM64 64v64h64v-64h-64zM128 128v64h64v-64h-64zM192 192v64h64v-64h-64zM256 256v64h64v-64h-64zM320 320v64h64v-64h-64zM384 384v64h64v-64h-64zM448 448v64h64v-64h-64zM512 512v64h64v-64h-64z" />
    <glyph glyph-name="zero" unicode="0" 
d="M192 192v64h64v-64h-64zM256 256v64h64v-64h-64zM320 320v64h64v-64h-64zM512 64v448h-448v-448h448zM0 0v576h576v-576h-576z" />
    <glyph glyph-name="one" unicode="1" 
d="M64 384v64h64v-64h-64zM128 448v64h64v-64h-64zM0 0v64h256v448h-64v64h128v-512h256v-64h-576z" />
    <glyph glyph-name="two" unicode="2" 
d="M0 0v320h512v192h-512v64h576v-320h-512v-192h512v-64h-576z" />
    <glyph glyph-name="three" unicode="3" 
d="M0 0v64h512v192h-256v64h256v192h-512v64h576v-576h-576z" />
    <glyph glyph-name="four" unicode="4" 
d="M512 0v256h-512v320h64v-256h448v256h64v-576h-64z" />
    <glyph glyph-name="five" unicode="5" 
d="M0 0v64h512v192h-512v320h576v-64h-512v-192h512v-320h-576z" />
    <glyph glyph-name="six" unicode="6" 
d="M512 64v192h-448v-192h448zM0 0v576h576v-64h-512v-192h512v-320h-576z" />
    <glyph glyph-name="seven" unicode="7" 
d="M512 0v256h-256v64h256v192h-512v64h576v-576h-64z" />
    <glyph glyph-name="eight" unicode="8" 
d="M512 64v192h-448v-192h448zM512 320v192h-448v-192h448zM0 0v576h576v-576h-576z" />
    <glyph glyph-name="nine" unicode="9" 
d="M512 320v192h-448v-192h448zM512 0v256h-512v320h576v-576h-64z" />
    <glyph glyph-name="colon" unicode=":" horiz-adv-x="192" 
d="M0 0v64h64v-64h-64zM0 256v64h64v-64h-64z" />
    <glyph glyph-name="semicolon" unicode=";" horiz-adv-x="192" 
d="M0 -64v128h64v-128h-64zM0 256v64h64v-64h-64z" />
    <glyph glyph-name="less" unicode="&#x3c;" horiz-adv-x="448" 
d="M192 0v64h128v-64h-128zM128 64v64h64v-64h-64zM64 128v64h64v-64h-64zM0 192v64h64v-64h-64zM64 256v64h64v-64h-64zM128 320v64h64v-64h-64zM192 384v64h128v-64h-128z" />
    <glyph glyph-name="equal" unicode="=" horiz-adv-x="448" 
d="M0 128v64h320v-64h-320zM0 320v64h320v-64h-320z" />
    <glyph glyph-name="greater" unicode="&#x3e;" horiz-adv-x="448" 
d="M0 0v64h128v-64h-128zM128 64v64h64v-64h-64zM192 128v64h64v-64h-64zM256 192v64h64v-64h-64zM192 256v64h64v-64h-64zM128 320v64h64v-64h-64zM0 384v64h128v-64h-128z" />
    <glyph glyph-name="question" unicode="?" 
d="M256 0v64h64v-64h-64zM256 128v128h64v-128h-64zM0 384v64h64v-64h-64zM320 256v64h192v128h64v-192h-256zM64 448v64h64v-64h-64zM448 448v64h64v-64h-64zM128 512v64h320v-64h-320z" />
    <glyph glyph-name="at" unicode="@" 
d="M128 0v64h448v-64h-448zM64 64v64h64v-64h-64zM192 128v64h192v-64h-192zM448 128v64h64v-64h-64zM128 192v192h64v-192h-64zM384 192v192h64v-192h-64zM0 128v320h64v-320h-64zM192 384v64h192v-64h-192zM512 192v256h64v-256h-64zM64 448v64h64v-64h-64zM448 448v64h64
v-64h-64zM128 512v64h320v-64h-320z" />
    <glyph glyph-name="A" unicode="A" 
d="M512 320v192h-448v-192h448zM0 0v576h576v-576h-64v256h-448v-256h-64z" />
    <glyph glyph-name="B" unicode="B" 
d="M0 0v576h576v-256h-64v192h-448v-192h448v-64h-448v-192h448v192h64v-256h-576z" />
    <glyph glyph-name="C" unicode="C" 
d="M0 0v576h576v-64h-512v-448h512v-64h-576z" />
    <glyph glyph-name="D" unicode="D" 
d="M0 0v576h512v-64h-448v-448h448v448h64v-512h-576z" />
    <glyph glyph-name="E" unicode="E" 
d="M0 0v576h576v-64h-512v-192h256v-64h-256v-192h512v-64h-576z" />
    <glyph glyph-name="F" unicode="F" 
d="M0 0v576h576v-64h-512v-192h256v-64h-256v-256h-64z" />
    <glyph glyph-name="G" unicode="G" 
d="M0 0v576h576v-64h-512v-448h448v192h-256v64h320v-320h-576z" />
    <glyph glyph-name="H" unicode="H" 
d="M0 0v576h64v-256h448v256h64v-576h-64v256h-448v-256h-64z" />
    <glyph glyph-name="I" unicode="I" 
d="M0 0v64h256v448h-256v64h576v-64h-256v-448h256v-64h-576z" />
    <glyph glyph-name="J" unicode="J" 
d="M0 0v320h64v-256h448v448h-512v64h576v-576h-576z" />
    <glyph glyph-name="K" unicode="K" 
d="M512 0v256h64v-256h-64zM0 0v576h64v-256h448v-64h-448v-256h-64zM512 320v256h64v-256h-64z" />
    <glyph glyph-name="L" unicode="L" 
d="M0 0v576h64v-512h512v-64h-576z" />
    <glyph glyph-name="M" unicode="M" 
d="M0 0v576h576v-576h-64v512h-192v-192h-64v192h-192v-512h-64z" />
    <glyph glyph-name="N" unicode="N" 
d="M384 192v64h64v-64h-64zM320 256v64h64v-64h-64zM256 320v64h64v-64h-64zM192 384v64h64v-64h-64zM128 448v64h64v-64h-64zM0 0v576h128v-64h-64v-512h-64zM512 0v128h-64v64h64v384h64v-576h-64z" />
    <glyph glyph-name="O" unicode="O" 
d="M512 64v448h-448v-448h448zM0 0v576h576v-576h-576z" />
    <glyph glyph-name="P" unicode="P" 
d="M512 320v192h-448v-192h448zM0 0v576h576v-320h-512v-256h-64z" />
    <glyph glyph-name="Q" unicode="Q" 
d="M512 0v64h64v-64h-64zM448 64v64h64v-64h-64zM384 128v64h64v-64h-64zM0 0v576h576v-448h-64v384h-448v-448h384v-64h-448z" />
    <glyph glyph-name="R" unicode="R" 
d="M512 0v64h64v-64h-64zM448 64v64h64v-64h-64zM384 128v64h64v-64h-64zM512 320v192h-448v-192h448zM0 0v576h576v-320h-192v-64h-64v64h-256v-256h-64z" />
    <glyph glyph-name="S" unicode="S" 
d="M0 0v64h512v192h-512v320h576v-64h-512v-192h512v-320h-576z" />
    <glyph glyph-name="T" unicode="T" 
d="M256 0v512h-256v64h576v-64h-256v-512h-64z" />
    <glyph glyph-name="U" unicode="U" 
d="M0 0v576h64v-512h448v512h64v-576h-576z" />
    <glyph glyph-name="V" unicode="V" 
d="M384 64v64h64v-64h-64zM320 128v64h64v-64h-64zM256 192v64h64v-64h-64zM192 256v64h64v-64h-64zM128 320v64h64v-64h-64zM64 384v64h64v-64h-64zM0 448v128h64v-128h-64zM448 0v64h64v512h64v-576h-128z" />
    <glyph glyph-name="W" unicode="W" 
d="M0 0v576h64v-512h192v192h64v-192h192v512h64v-576h-576z" />
    <glyph glyph-name="X" unicode="X" 
d="M0 0v64h64v-64h-64zM512 0v64h64v-64h-64zM64 64v64h64v-64h-64zM448 64v64h64v-64h-64zM128 128v64h64v-64h-64zM384 128v64h64v-64h-64zM192 192v64h64v-64h-64zM320 192v64h64v-64h-64zM256 256v64h64v-64h-64zM192 320v64h64v-64h-64zM320 320v64h64v-64h-64z
M128 384v64h64v-64h-64zM384 384v64h64v-64h-64zM64 448v64h64v-64h-64zM448 448v64h64v-64h-64zM0 512v64h64v-64h-64zM512 512v64h64v-64h-64z" />
    <glyph glyph-name="Y" unicode="Y" 
d="M256 0v320h64v-320h-64zM192 320v64h64v-64h-64zM320 320v64h64v-64h-64zM128 384v64h64v-64h-64zM384 384v64h64v-64h-64zM64 448v64h64v-64h-64zM448 448v64h64v-64h-64zM0 512v64h64v-64h-64zM512 512v64h64v-64h-64z" />
    <glyph glyph-name="Z" unicode="Z" 
d="M0 0v64h64v64h64v-64h448v-64h-576zM128 128v64h64v-64h-64zM192 192v64h64v-64h-64zM256 256v64h64v-64h-64zM320 320v64h64v-64h-64zM384 384v64h64v-64h-64zM448 448v64h-448v64h576v-64h-64v-64h-64z" />
    <glyph glyph-name="bracketleft" unicode="[" horiz-adv-x="320" 
d="M0 0v576h192v-64h-128v-448h128v-64h-192z" />
    <glyph glyph-name="backslash" unicode="\" 
d="M512 0v64h64v-64h-64zM448 64v64h64v-64h-64zM384 128v64h64v-64h-64zM320 192v64h64v-64h-64zM256 256v64h64v-64h-64zM192 320v64h64v-64h-64zM128 384v64h64v-64h-64zM64 448v64h64v-64h-64zM0 512v64h64v-64h-64z" />
    <glyph glyph-name="bracketright" unicode="]" horiz-adv-x="320" 
d="M0 0v64h128v448h-128v64h192v-576h-192z" />
    <glyph glyph-name="asciicircum" unicode="^" horiz-adv-x="576" 
d="M0 320v64h64v-64h-64zM384 320v64h64v-64h-64zM64 384v64h64v-64h-64zM320 384v64h64v-64h-64zM128 448v64h64v-64h-64zM256 448v64h64v-64h-64zM192 512v64h64v-64h-64z" />
    <glyph glyph-name="underscore" unicode="_" horiz-adv-x="448" 
d="M0 0v64h320v-64h-320z" />
    <glyph glyph-name="grave" unicode="`" horiz-adv-x="192" 
d="M0 448v128h64v-128h-64z" />
    <glyph glyph-name="a" unicode="a" 
d="M0 0v320h64v64h64v-64h320v64h64v-64h64v-320h-64v256h-448v-256h-64zM128 384v64h64v-64h-64zM384 384v64h64v-64h-64zM192 448v64h64v-64h-64zM320 448v64h64v-64h-64zM256 512v64h64v-64h-64z" />
    <glyph glyph-name="b" unicode="b" 
d="M448 64v64h64v-64h-64zM448 448v64h64v-64h-64zM0 0v576h448v-64h-384v-192h448v128h64v-320h-64v128h-448v-192h384v-64h-448z" />
    <glyph glyph-name="c" unicode="c" 
d="M128 0v64h448v-64h-448zM64 64v64h64v-64h-64zM0 128v320h64v-320h-64zM64 448v64h64v-64h-64zM128 512v64h448v-64h-448z" />
    <glyph glyph-name="d" unicode="d" 
d="M448 64v64h64v-64h-64zM512 128v320h64v-320h-64zM448 448v64h64v-64h-64zM0 0v576h448v-64h-384v-448h384v-64h-448z" />
    <glyph glyph-name="e" unicode="e" 
d="M0 0v576h576v-64h-512v-192h256v-64h-256v-192h512v-64h-576z" />
    <glyph glyph-name="f" unicode="f" 
d="M0 0v576h576v-64h-512v-192h256v-64h-256v-256h-64z" />
    <glyph glyph-name="g" unicode="g" 
d="M128 0v64h320v-64h-320zM64 64v64h64v-64h-64zM448 64v64h64v-64h-64zM512 128v128h-256v64h320v-192h-64zM0 128v320h64v-320h-64zM512 384v64h64v-64h-64zM64 448v64h64v-64h-64zM448 448v64h64v-64h-64zM128 512v64h320v-64h-320z" />
    <glyph glyph-name="h" unicode="h" 
d="M0 0v576h64v-256h448v256h64v-576h-64v256h-448v-256h-64z" />
    <glyph glyph-name="i" unicode="i" 
d="M0 0v64h256v448h-256v64h576v-64h-256v-448h256v-64h-576z" />
    <glyph glyph-name="j" unicode="j" 
d="M128 0v64h320v-64h-320zM64 64v64h64v-64h-64zM448 64v64h64v-64h-64zM0 128v192h64v-192h-64zM512 128v384h-512v64h576v-448h-64z" />
    <glyph glyph-name="k" unicode="k" 
d="M512 0v192h64v-192h-64zM448 192v64h64v-64h-64zM448 320v64h64v-64h-64zM0 0v576h64v-256h384v-64h-384v-256h-64zM512 384v192h64v-192h-64z" />
    <glyph glyph-name="l" unicode="l" 
d="M0 0v576h64v-512h512v-64h-576z" />
    <glyph glyph-name="m" unicode="m" 
d="M256 320v128h64v-128h-64zM192 448v64h64v-64h-64zM320 448v64h64v-64h-64zM0 0v576h192v-64h-128v-512h-64zM512 0v512h-128v64h192v-576h-64z" />
    <glyph glyph-name="n" unicode="n" 
d="M384 192v64h64v-64h-64zM320 256v64h64v-64h-64zM256 320v64h64v-64h-64zM192 384v64h64v-64h-64zM128 448v64h64v-64h-64zM0 0v576h128v-64h-64v-512h-64zM512 0v128h-64v64h64v384h64v-576h-64z" />
    <glyph glyph-name="o" unicode="o" 
d="M128 0v64h320v-64h-320zM64 64v64h64v-64h-64zM448 64v64h64v-64h-64zM0 128v320h64v-320h-64zM512 128v320h64v-320h-64zM64 448v64h64v-64h-64zM448 448v64h64v-64h-64zM128 512v64h320v-64h-320z" />
    <glyph glyph-name="p" unicode="p" 
d="M448 448v64h64v-64h-64zM0 0v576h448v-64h-384v-192h448v128h64v-192h-512v-256h-64z" />
    <glyph glyph-name="q" unicode="q" 
d="M128 0v64h320v-64h-320zM512 0v64h64v-64h-64zM64 64v64h64v-64h-64zM448 64v64h64v-64h-64zM384 128v64h64v-64h-64zM0 128v320h64v-320h-64zM512 128v320h64v-320h-64zM64 448v64h64v-64h-64zM448 448v64h64v-64h-64zM128 512v64h320v-64h-320z" />
    <glyph glyph-name="r" unicode="r" 
d="M512 0v64h64v-64h-64zM448 64v64h64v-64h-64zM384 128v64h64v-64h-64zM448 448v64h64v-64h-64zM0 0v576h448v-64h-384v-192h448v128h64v-192h-192v-64h-64v64h-256v-256h-64z" />
    <glyph glyph-name="s" unicode="s" 
d="M0 0v64h448v-64h-448zM448 64v64h64v-64h-64zM512 128v128h-512v192h64v-128h512v-192h-64zM64 448v64h64v-64h-64zM128 512v64h448v-64h-448z" />
    <glyph glyph-name="t" unicode="t" 
d="M256 0v512h-256v64h576v-64h-256v-512h-64z" />
    <glyph glyph-name="u" unicode="u" 
d="M128 0v64h320v-64h-320zM64 64v64h64v-64h-64zM448 64v64h64v-64h-64zM0 128v448h64v-448h-64zM512 128v448h64v-448h-64z" />
    <glyph glyph-name="v" unicode="v" 
d="M384 64v64h64v-64h-64zM320 128v64h64v-64h-64zM256 192v64h64v-64h-64zM192 256v64h64v-64h-64zM128 320v64h64v-64h-64zM64 384v64h64v-64h-64zM0 448v128h64v-128h-64zM448 0v64h64v512h64v-576h-128z" />
    <glyph glyph-name="w" unicode="w" 
d="M64 64v64h64v-64h-64zM448 64v64h64v-64h-64zM128 0v64h128v192h64v-192h128v-64h-320zM0 128v448h64v-448h-64zM512 128v448h64v-448h-64z" />
    <glyph glyph-name="x" unicode="x" 
d="M0 0v64h64v-64h-64zM512 0v64h64v-64h-64zM64 64v64h64v-64h-64zM448 64v64h64v-64h-64zM128 128v64h64v-64h-64zM384 128v64h64v-64h-64zM192 192v64h64v-64h-64zM320 192v64h64v-64h-64zM256 256v64h64v-64h-64zM192 320v64h64v-64h-64zM320 320v64h64v-64h-64z
M128 384v64h64v-64h-64zM384 384v64h64v-64h-64zM64 448v64h64v-64h-64zM448 448v64h64v-64h-64zM0 512v64h64v-64h-64zM512 512v64h64v-64h-64z" />
    <glyph glyph-name="y" unicode="y" 
d="M256 0v320h64v-320h-64zM192 320v64h64v-64h-64zM320 320v64h64v-64h-64zM128 384v64h64v-64h-64zM384 384v64h64v-64h-64zM64 448v64h64v-64h-64zM448 448v64h64v-64h-64zM0 512v64h64v-64h-64zM512 512v64h64v-64h-64z" />
    <glyph glyph-name="z" unicode="z" 
d="M0 0v64h64v64h64v-64h448v-64h-576zM128 128v64h64v-64h-64zM192 192v64h64v-64h-64zM256 256v64h64v-64h-64zM320 320v64h64v-64h-64zM384 384v64h64v-64h-64zM448 448v64h-448v64h576v-64h-64v-64h-64z" />
    <glyph glyph-name="braceleft" unicode="{" horiz-adv-x="320" 
d="M128 0v64h64v-64h-64zM64 64v192h64v-192h-64zM0 256v64h64v-64h-64zM64 320v192h64v-192h-64zM128 512v64h64v-64h-64z" />
    <glyph glyph-name="bar" unicode="|" horiz-adv-x="192" 
d="M0 0v576h64v-576h-64z" />
    <glyph glyph-name="braceright" unicode="}" horiz-adv-x="320" 
d="M0 0v64h64v-64h-64zM64 64v192h64v-192h-64zM128 256v64h64v-64h-64zM64 320v192h64v-192h-64zM0 512v64h64v-64h-64z" />
    <glyph glyph-name="asciitilde" unicode="~" horiz-adv-x="448" 
d="M0 256v64h64v-64h-64zM192 256v64h64v-64h-64zM64 320v64h128v-64h-128zM256 320v64h64v-64h-64z" />
    <glyph glyph-name="quoteleft" unicode="&#x2018;" horiz-adv-x="192" 
d="M0 448v128h64v-128h-64z" />
    <glyph glyph-name="quoteright" unicode="&#x2019;" horiz-adv-x="192" 
d="M0 448v128h64v-128h-64z" />
    <glyph glyph-name="quotedblleft" unicode="&#x201c;" horiz-adv-x="320" 
d="M0 448v128h64v-128h-64zM128 448v128h64v-128h-64z" />
    <glyph glyph-name="quotedblright" unicode="&#x201d;" horiz-adv-x="320" 
d="M0 448v128h64v-128h-64zM128 448v128h64v-128h-64z" />
  </font>
</defs>
</svg>
